<svg width="260" height="168" viewBox="0 0 260 168" fill="none" xmlns="http://www.w3.org/2000/svg">
<path d="M19.0977 11.3808H159.603V160.767H19.0977C14.2475 160.767 10.3067 156.823 10.3067 151.97V20.1775C10.3067 15.3242 14.2475 11.3808 19.0977 11.3808Z" stroke="white" stroke-miterlimit="10"/>
<path d="M159.603 11.3808H243.182C248.061 11.3808 252.019 15.3417 252.019 20.2242V103.857H159.597V11.3808H159.603Z" stroke="white" stroke-miterlimit="10"/>
<path d="M159.603 103.857H252.025V151.894C252.025 156.794 248.049 160.767 243.158 160.767H159.609V103.857H159.603Z" stroke="white" stroke-miterlimit="10"/>
<path d="M195.152 125.201H159.603V160.772H195.152V125.201Z" stroke="white" stroke-miterlimit="10"/>
<path d="M180.933 103.857H159.603V125.201H180.933V103.857Z" stroke="white" stroke-miterlimit="10"/>
<path d="M195.152 103.857H180.933V118.084H195.152V103.857Z" stroke="white" stroke-miterlimit="10"/>
<path d="M195.152 118.084H188.039V125.201H195.152V118.084Z" stroke="white" stroke-miterlimit="10"/>
<path d="M79.8014 71.2367V46.095C79.8014 42.1108 79.3059 39.3575 78.3207 37.835C77.3355 36.3125 75.6216 35.5542 73.1906 35.5542C70.1476 35.5542 68.0372 36.61 66.8538 38.7275C65.6704 40.8392 65.0758 45.1675 65.0758 51.7067V71.2367H49.3884V46.095C49.3884 42.0467 48.9045 39.2817 47.931 37.7883C46.9574 36.3008 45.2552 35.5542 42.8242 35.5542C39.7812 35.5542 37.6534 36.5983 36.4408 38.6808C35.2224 40.7633 34.6162 45.1092 34.6162 51.7067V71.2367H18.8354V25.1475H34.7969V33.18C36.7148 29.925 38.9242 27.5275 41.431 25.9933C43.9377 24.4592 46.8933 23.6892 50.2978 23.6892C54.0345 23.6892 57.1009 24.4125 59.4852 25.8592C61.8695 27.3058 63.5834 29.47 64.6153 32.3633C66.4108 29.4408 68.5969 27.2708 71.1794 25.8358C73.7619 24.4067 76.805 23.6892 80.3027 23.6892C83.0718 23.6892 85.4911 24.1558 87.578 25.0833C89.6592 26.0108 91.4023 27.405 92.8014 29.26C93.9265 30.7183 94.7251 32.4217 95.1973 34.37C95.6695 36.3183 95.9027 39.48 95.9027 43.8608V71.2425H79.8072L79.8014 71.2367Z" fill="white"/>
<path d="M156.227 48.335C156.227 51.6483 155.58 54.7983 154.292 57.7792C152.998 60.76 151.121 63.4375 148.661 65.8117C146.166 68.1858 143.379 69.9825 140.295 71.1958C137.211 72.4092 133.935 73.0217 130.466 73.0217C126.998 73.0217 123.634 72.415 120.55 71.1958C117.466 69.9825 114.703 68.1858 112.272 65.8117C109.841 63.5017 107.987 60.8475 106.711 57.8492C105.434 54.8508 104.793 51.6833 104.793 48.335C104.793 44.9867 105.422 41.7783 106.687 38.7975C107.947 35.8167 109.812 33.1392 112.272 30.765C114.674 28.42 117.42 26.6583 120.504 25.4742C123.587 24.29 126.91 23.695 130.466 23.695C134.022 23.695 137.339 24.29 140.406 25.4742C143.478 26.6583 146.23 28.4258 148.661 30.765C151.156 33.1683 153.039 35.8633 154.315 38.8442C155.592 41.825 156.233 44.9867 156.233 48.335H156.227ZM140.085 48.335C140.085 44.8992 139.217 42.1925 137.485 40.215C135.754 38.2375 133.41 37.2517 130.461 37.2517C127.511 37.2517 125.132 38.2433 123.413 40.215C121.693 42.1925 120.836 44.8992 120.836 48.335C120.836 51.7708 121.687 54.4717 123.389 56.4317C125.092 58.3917 127.447 59.3775 130.455 59.3775C133.463 59.3775 135.783 58.3975 137.503 56.4317C139.222 54.4717 140.079 51.7708 140.079 48.335H140.085Z" fill="white"/>
<path d="M18.9345 148.009V73.9142H42.8359V88.9525C46.3045 82.9383 50.3152 78.5342 54.8565 75.7458C59.4036 72.9575 64.8484 71.5633 71.2027 71.5633C75.9946 71.5633 80.256 72.3333 83.9986 73.8733C87.7354 75.4133 90.7785 77.63 93.1278 80.5117C95.0807 83.0083 96.474 86.0417 97.3076 89.6058C98.1354 93.1758 98.5551 98.5075 98.5551 105.601V148.003H72.3803V108.313C72.3803 102.398 71.4125 98.0933 69.4829 95.4042C67.5533 92.715 64.4637 91.3675 60.2081 91.3675C54.7807 91.3675 50.8224 93.3742 48.3332 97.3817C45.8381 101.395 44.5964 107.899 44.5964 116.894V147.997H18.9345V148.009Z" fill="white"/>
<path d="M116.365 50.8083C116.365 46.8475 117.769 43.47 120.579 40.6875C123.389 37.8992 126.776 36.505 130.735 36.505C134.693 36.505 138.272 37.8758 141.035 40.6117C143.799 43.3533 145.18 46.7483 145.18 50.8083C145.18 54.8683 143.775 58.3158 140.965 61.1508C138.156 63.9858 134.745 65.4033 130.74 65.4033C126.735 65.4033 123.459 63.9625 120.62 61.075C117.787 58.1875 116.37 54.7633 116.37 50.8025L116.365 50.8083ZM117.682 148.009V73.9142H143.857V148.009H117.682Z" fill="white"/>
<path d="M169.484 87.2375V55.1075H163.048V44.4267H169.484V35.6533C169.484 30.6833 170.842 26.9383 173.553 24.4242C176.264 21.91 180.315 20.65 185.708 20.65C186.471 20.65 187.381 20.72 188.442 20.86C189.503 21 190.639 21.1983 191.852 21.455V32.9817C191.176 32.725 190.546 32.5383 189.969 32.41C189.392 32.2817 188.861 32.2175 188.383 32.2175C186.973 32.2175 185.941 32.6433 185.294 33.4892C184.647 34.335 184.32 35.7058 184.32 37.6017V44.4267H191.858V55.1075H184.32V87.2375H169.496H169.484Z" fill="white"/>
<path d="M198.119 31.0742C198.119 28.7875 198.929 26.8333 200.556 25.2233C202.182 23.6133 204.135 22.8083 206.42 22.8083C208.705 22.8083 210.775 23.6017 212.372 25.1825C213.969 26.7633 214.768 28.7292 214.768 31.0742C214.768 33.4192 213.958 35.4142 212.331 37.0533C210.705 38.6925 208.735 39.5092 206.42 39.5092C204.106 39.5092 202.211 38.675 200.573 37.0067C198.935 35.3383 198.119 33.3608 198.119 31.0742ZM198.883 87.2317V44.4208H214.004V87.2317H198.883Z" fill="white"/>
<path d="M227.856 87.2375V55.1075H221.461V44.4267H227.856V31.6692H242.721V44.4267H249.116V55.1075H242.721V87.2375H227.856Z" fill="white"/>
<path d="M147.874 11.3808H159.603V22.7617C159.603 22.7617 159.247 11.3808 147.874 11.3808Z" fill="white"/>
<path d="M183.417 125.201H195.146V136.582C195.146 136.582 194.79 125.201 183.417 125.201Z" fill="white"/>
<path d="M169.198 103.857H180.927V115.237C180.927 115.237 180.572 103.857 169.198 103.857Z" fill="white"/>
<path d="M240.29 103.857H252.019V115.237C252.019 115.237 251.664 103.857 240.29 103.857Z" fill="white"/>
<path d="M171.332 11.3808H159.603V22.7617C159.603 22.7617 159.958 11.3808 171.332 11.3808Z" fill="white"/>
<path d="M147.874 160.767H159.603V149.386C159.603 149.386 159.247 160.767 147.874 160.767Z" fill="white"/>
<path d="M240.29 103.857H252.019V92.4758C252.019 92.4758 251.664 103.857 240.29 103.857Z" fill="white"/>
<path d="M169.198 125.201H180.927V113.82C180.927 113.82 180.572 125.201 169.198 125.201Z" fill="white"/>
<path d="M183.417 160.767H195.146V149.386C195.146 149.386 194.79 160.767 183.417 160.767Z" fill="white"/>
<path d="M183.417 118.084H195.146V106.703C195.146 106.703 194.79 118.084 183.417 118.084Z" fill="white"/>
<path d="M171.332 160.767H159.603V149.386C159.603 149.386 159.958 160.767 171.332 160.767Z" fill="white"/>
<path d="M171.332 125.201H159.603V113.82C159.603 113.82 159.958 125.201 171.332 125.201Z" fill="white"/>
<path d="M171.332 103.857H159.603V92.4758C159.603 92.4758 159.958 103.857 171.332 103.857Z" fill="white"/>
<path d="M206.881 160.767H195.152V149.386C195.152 149.386 195.507 160.767 206.881 160.767Z" fill="white"/>
<path d="M171.332 125.201H159.603V136.582C159.603 136.582 159.958 125.201 171.332 125.201Z" fill="white"/>
<path d="M192.662 103.857H180.933V115.237C180.933 115.237 181.289 103.857 192.662 103.857Z" fill="white"/>
<path d="M171.332 103.857H159.603V115.237C159.603 115.237 159.958 103.857 171.332 103.857Z" fill="white"/>
<path d="M206.881 103.857H195.152V115.237C195.152 115.237 195.507 103.857 206.881 103.857Z" fill="white"/>
<path d="M195.152 118.084H180.222V125.201H195.152V118.084Z" fill="white"/>
<path d="M130.641 28.3792C130.641 28.3792 130.082 18.3342 135.969 15.7442" stroke="white" stroke-width="4" stroke-miterlimit="10" stroke-linecap="round"/>
<path d="M132.868 17.7275C132.868 17.7275 132.244 14.455 129.079 12.9733" stroke="white" stroke-miterlimit="10"/>
<path d="M123.004 5.83334C123.004 5.83334 126.805 5.18 129.248 8.4875C131.166 11.0833 130.163 13.5625 130.163 13.5625C130.163 13.5625 125.336 14 123.587 12.25C122.637 11.2992 121.693 7.44917 123.004 5.83334Z" fill="white"/>
<path d="M123.587 6.41667C123.587 6.41667 126.957 8.60417 129.709 13.125" stroke="white" stroke-width="0.2" stroke-linecap="round" stroke-linejoin="round"/>
<path d="M123.005 8.16667C123.005 8.16667 124.689 7.36166 125.593 8.05583" stroke="white" stroke-width="0.2" stroke-linecap="round" stroke-linejoin="round"/>
<path d="M123.587 9.91667C123.587 9.91667 125.861 7.91583 127.085 9.6425C127.085 9.6425 125.919 8.16667 127.085 7.58333" stroke="white" stroke-width="0.2" stroke-linecap="round" stroke-linejoin="round"/>
<path d="M124.17 11.0833C124.17 11.0833 126.823 9.0825 128.251 10.8092" stroke="white" stroke-width="0.2" stroke-linecap="round" stroke-linejoin="round"/>
<path d="M124.753 12.25C124.753 12.25 127.575 11.445 129.091 12.1392" stroke="white" stroke-width="0.2" stroke-linecap="round" stroke-linejoin="round"/>
<path d="M128.42 11.2233C128.42 11.2233 127.085 9.7475 128.251 8.66833" stroke="white" stroke-width="0.2" stroke-linecap="round" stroke-linejoin="round"/>
<path d="M125.698 8.155C125.698 8.155 125.336 7.58333 125.919 7" stroke="white" stroke-width="0.2" stroke-linecap="round" stroke-linejoin="round"/>
</svg>
