<svg xmlns="http://www.w3.org/2000/svg" xmlns:xlink="http://www.w3.org/1999/xlink" width="500" zoomAndPan="magnify" viewBox="0 0 375 374.999991" height="500" preserveAspectRatio="xMidYMid meet" version="1.0"><defs><clipPath id="f2c43b14ed"><path d="M 136 219 L 365.816406 219 L 365.816406 254 L 136 254 Z M 136 219 " clip-rule="nonzero"/></clipPath></defs><path fill="#ff9a03" d="M 286.535156 165.640625 C 285.039062 162.03125 283.761719 158.023438 281.078125 155.03125 C 278.523438 152.214844 275.75 149.484375 273.023438 146.796875 C 266.992188 140.898438 261.136719 135.394531 253.875 131.078125 C 249.957031 128.746094 246.082031 126.632812 241.722656 125.222656 C 237.058594 123.726562 232.304688 122.363281 227.503906 121.394531 C 215.53125 119.015625 202.414062 119.238281 190.484375 122.011719 C 182.824219 123.769531 175.078125 126.015625 167.945312 129.320312 C 159.933594 133.0625 152.671875 138.695312 146.597656 145.167969 C 141.621094 150.496094 137.792969 156.617188 134.226562 162.914062 C 132.421875 166.082031 131.101562 169.429688 128.550781 173.789062 C 98.132812 176.386719 67.714844 179.335938 37.253906 181.183594 C 31.175781 181.535156 25.148438 181.933594 19.203125 183.386719 C 17.574219 183.78125 8.683594 184.617188 9.871094 187.921875 C 12.46875 189.152344 14.933594 188.933594 17.75 188.757812 C 26.335938 188.183594 35.050781 188.359375 43.636719 188.359375 C 56.003906 188.359375 68.417969 188.492188 80.742188 187.390625 C 87.875 186.777344 94.960938 186.820312 102.09375 186.554688 C 106.539062 186.378906 110.941406 186.027344 115.386719 186.070312 C 117.851562 186.070312 120.359375 186.027344 122.828125 186.292969 C 123.75 186.378906 127.84375 186.335938 126.566406 188.007812 C 126.128906 188.582031 123.972656 189.285156 123.75 189.375 C 121.726562 190.035156 119.65625 190.472656 117.589844 190.957031 C 114.726562 191.617188 111.777344 192.234375 108.960938 193.070312 C 107.683594 193.425781 106.449219 194.039062 105.175781 194.390625 C 102.488281 195.183594 99.40625 195.933594 97.03125 197.472656 C 96.105469 198.089844 95.667969 198.53125 96.632812 199.191406 C 98.527344 200.46875 102.003906 200.027344 104.074219 200.027344 C 110.722656 200.070312 117.367188 200.292969 124.015625 200.203125 C 130.265625 200.117188 136.515625 200.25 142.765625 200.203125 C 156.941406 200.117188 171.160156 199.324219 185.289062 198.839844 C 195.328125 198.488281 205.363281 198.398438 215.398438 197.78125 C 220.726562 197.429688 226.007812 197.296875 231.289062 196.859375 C 237.71875 196.328125 244.144531 195.625 250.570312 195.183594 C 254.179688 194.964844 257.746094 195.007812 261.3125 195.007812 C 265.582031 195.054688 269.941406 194.523438 274.210938 195.140625 C 275.441406 195.316406 279.007812 195.40625 279.535156 196.859375 C 280.195312 198.664062 275.839844 199.191406 275.222656 199.324219 C 272.054688 199.894531 268.707031 199.894531 265.496094 200.117188 C 260.476562 200.46875 255.457031 200.863281 250.441406 200.953125 C 242.957031 201.085938 235.472656 201.4375 228.035156 201.789062 C 220.109375 202.140625 211.964844 202.449219 204.042969 203.375 C 185.554688 205.53125 166.890625 205.972656 148.535156 209.1875 C 138.804688 210.859375 128.902344 211.738281 119.304688 214.292969 C 117.015625 214.910156 114.375 215.261719 112.261719 216.40625 C 110.589844 217.289062 108.828125 219.53125 111.46875 220.457031 C 115.300781 221.820312 119.699219 221.117188 123.664062 220.898438 C 128.59375 220.589844 133.523438 220.191406 138.453125 220.105469 C 155.972656 219.929688 173.492188 219.269531 190.925781 217.992188 C 201.710938 217.199219 212.539062 216.890625 223.324219 216.230469 C 235.738281 215.4375 248.152344 214.820312 260.476562 213.191406 C 269.324219 212.003906 278.261719 210.460938 287.152344 209.800781 C 290.367188 209.539062 293.535156 209.054688 296.703125 208.703125 C 302.074219 208.085938 307.445312 207.863281 312.816406 207.378906 C 321.488281 206.589844 330.070312 204.738281 338.699219 203.683594 C 342.703125 203.199219 346.710938 202.539062 350.714844 201.964844 C 353.050781 201.613281 356.570312 201.394531 358.375 199.675781 C 358.949219 199.148438 359.917969 197.695312 359.609375 196.902344 C 358.902344 195.230469 353.003906 194.832031 351.773438 194.699219 C 347.8125 194.304688 343.761719 194.304688 339.753906 194.171875 C 330.863281 193.863281 322.015625 193.335938 313.125 192.761719 C 306.386719 192.324219 299.257812 192.941406 292.65625 191.53125 C 291.464844 191.265625 287.722656 190.695312 287.945312 188.890625 C 288.078125 187.746094 292.082031 186.863281 293.09375 186.378906 C 294.988281 185.453125 296.75 184.839844 298.15625 183.210938 C 299.917969 181.226562 297.847656 180.480469 295.910156 180.039062 C 292.566406 179.289062 289.132812 179.597656 285.789062 179.996094 C 281.648438 180.480469 277.554688 180.65625 273.417969 180.742188 C 266.683594 180.875 259.949219 181.007812 253.210938 181.359375 C 247.3125 181.625 241.460938 181.316406 235.5625 181.449219 C 230.628906 181.535156 225.699219 181.800781 220.726562 181.933594 C 216.058594 182.066406 211.351562 182.417969 206.726562 181.667969 C 205.628906 181.492188 200.652344 180.964844 202.195312 178.851562 C 202.632812 178.234375 204.175781 177.707031 204.746094 177.53125 C 207.167969 176.691406 209.675781 176.078125 212.1875 175.546875 C 226.183594 172.554688 240.753906 172.6875 254.972656 171.628906 C 261.179688 171.144531 267.34375 170.835938 273.59375 170.75 C 275.792969 170.707031 278.039062 170.707031 280.195312 170.441406 C 281.824219 170.265625 283.453125 170.175781 285.128906 170.089844 C 287.769531 169.914062 287.898438 168.988281 286.535156 165.640625 Z M 286.535156 165.640625 " fill-opacity="1" fill-rule="nonzero"/><path fill="#ffb703" d="M 105 230.582031 C 96.0625 230.277344 87.257812 230.011719 78.367188 230.496094 C 70.53125 230.890625 62.695312 231.816406 54.902344 232.390625 C 48.742188 232.828125 41.917969 233.136719 36.019531 235.117188 C 34.125 235.734375 32.234375 236.4375 30.386719 237.144531 C 29.242188 237.585938 27.390625 238.070312 26.644531 239.082031 C 24.882812 241.503906 28.273438 241.8125 30.078125 241.855469 C 34.300781 242.03125 38.574219 241.457031 42.796875 241.238281 C 49.226562 240.886719 55.742188 240.84375 62.167969 240.84375 C 69.605469 240.796875 77.355469 240.667969 84.75 241.855469 C 85.9375 242.03125 90.78125 242.425781 90.691406 244.144531 C 90.605469 245.773438 82.855469 246.742188 86.863281 249.164062 C 88.007812 249.867188 89.460938 249.957031 90.734375 250 C 93.113281 250.089844 95.488281 250 97.910156 249.910156 C 102.796875 249.78125 107.683594 249.605469 112.570312 249.339844 C 117.542969 249.074219 122.34375 248.152344 127.273438 247.402344 C 129.078125 247.136719 134.316406 247.226562 135.0625 244.761719 C 135.59375 243 133.082031 242.339844 131.804688 241.988281 C 128.902344 241.195312 125.730469 241.414062 123.222656 239.433594 C 123.355469 238.289062 125.820312 237.761719 126.523438 236.878906 C 127.625 235.515625 126.214844 234.765625 124.851562 234.195312 C 122.605469 233.269531 120.183594 232.652344 117.765625 232.300781 C 113.496094 231.773438 109.3125 230.714844 105 230.582031 Z M 105 230.582031 " fill-opacity="1" fill-rule="nonzero"/><g clip-path="url(#f2c43b14ed)"><path fill="#ffb703" d="M 333.769531 219.929688 C 318.492188 219.929688 311.539062 220.5 300.445312 221.117188 C 291.597656 221.601562 282.792969 222.128906 273.945312 222.613281 C 265.011719 223.144531 256.03125 223.804688 247.136719 224.683594 C 240.492188 225.34375 233.84375 226.3125 227.195312 227.015625 C 221.871094 227.589844 216.542969 228.25 211.261719 229.21875 C 208.753906 229.660156 205.144531 229.96875 203.074219 231.640625 C 200.917969 233.359375 203.953125 234.855469 205.582031 235.339844 C 206.726562 235.691406 210.691406 237.011719 208.179688 238.289062 C 207.210938 238.773438 205.671875 238.859375 204.613281 238.992188 C 201.753906 239.433594 198.847656 239.652344 195.988281 239.917969 C 189.339844 240.535156 182.738281 241.328125 176.179688 242.382812 C 169.925781 243.394531 163.808594 244.714844 157.515625 245.554688 C 154.828125 245.90625 152.144531 246.257812 149.503906 246.742188 C 146.683594 247.269531 143.910156 247.886719 141.136719 248.722656 C 139.597656 249.207031 138.101562 249.515625 137.089844 250.835938 C 136.78125 251.234375 136.296875 251.804688 136.515625 252.289062 C 136.824219 252.992188 139.816406 253.347656 140.433594 253.523438 C 142.679688 254.007812 145.144531 253.960938 147.433594 253.960938 C 154.433594 254.007812 161.433594 253.257812 168.429688 252.773438 C 180.800781 251.9375 193.214844 252.113281 205.582031 251.671875 C 216.324219 251.277344 227.019531 250.792969 237.71875 250.21875 C 246.476562 249.734375 255.371094 249.121094 264.042969 248.105469 C 268.445312 247.578125 272.667969 247.226562 276.9375 245.816406 C 278.039062 245.464844 281.078125 244.101562 278.789062 243.175781 C 276.808594 242.382812 274.519531 242.648438 272.449219 242.648438 C 269.28125 242.601562 266.109375 242.78125 262.941406 242.691406 C 260.078125 242.601562 256.777344 242.339844 254.09375 241.414062 C 253.433594 241.195312 252.421875 241.019531 251.980469 240.445312 C 251.230469 239.519531 251.890625 238.816406 252.816406 238.15625 C 254.269531 237.144531 255.984375 236.792969 257.703125 236.484375 C 260.519531 236.042969 263.425781 235.867188 266.242188 235.601562 C 272.054688 235.03125 277.90625 234.679688 283.71875 234.238281 C 295.824219 233.359375 307.929688 232.433594 319.992188 231.066406 C 336.453125 229.21875 354.941406 228.777344 364.054688 227.5 C 365.59375 227.28125 365.507812 225.082031 363.964844 224.992188 C 361.546875 224.816406 336.71875 225.125 331.082031 225.257812 C 328.308594 225.34375 320.695312 225.652344 314.222656 225.695312 C 313.433594 225.695312 313.386719 224.507812 314.179688 224.464844 C 320.035156 224.113281 326.683594 223.847656 329.058594 223.582031 C 331.082031 223.363281 336.367188 224.15625 336.71875 221.953125 C 337.070312 221.03125 335.882812 219.929688 333.769531 219.929688 Z M 333.769531 219.929688 " fill-opacity="1" fill-rule="nonzero"/></g><path fill="#c46002" d="M 139.992188 174.933594 C 135.988281 174.933594 131.984375 174.886719 127.933594 174.84375 C 127.359375 174.84375 126.921875 174.359375 126.921875 173.832031 C 126.921875 173.257812 127.359375 172.820312 127.933594 172.820312 C 138.1875 172.949219 148.226562 172.996094 158.175781 172.511719 C 160.769531 172.378906 163.414062 172.203125 166.007812 172.070312 C 170.410156 171.804688 174.988281 171.542969 179.480469 171.410156 C 182.691406 171.320312 185.90625 171.234375 189.121094 171.144531 C 199.90625 170.835938 211.042969 170.527344 221.957031 169.914062 C 237.542969 169.03125 252.992188 167.800781 267.914062 166.65625 C 271.261719 166.390625 274.648438 166.039062 277.90625 165.6875 L 277.996094 165.6875 C 278.4375 165.640625 278.875 165.597656 279.359375 165.554688 C 281.605469 165.289062 283.984375 165.027344 286.226562 165.15625 C 286.800781 165.203125 287.195312 165.6875 287.195312 166.214844 C 287.152344 166.785156 286.667969 167.183594 286.140625 167.183594 C 284.070312 167.050781 281.824219 167.316406 279.625 167.578125 C 279.183594 167.625 278.699219 167.667969 278.261719 167.710938 L 278.171875 167.710938 C 274.871094 168.0625 271.480469 168.414062 268.089844 168.679688 C 253.167969 169.867188 237.71875 171.058594 222.089844 171.980469 C 211.128906 172.597656 199.949219 172.90625 189.164062 173.214844 C 185.949219 173.304688 182.738281 173.390625 179.523438 173.480469 C 175.078125 173.609375 170.5 173.875 166.140625 174.140625 C 163.542969 174.316406 160.902344 174.449219 158.304688 174.578125 C 152.230469 174.84375 146.15625 174.933594 139.992188 174.933594 Z M 139.992188 174.933594 " fill-opacity="1" fill-rule="nonzero"/><path fill="#c46002" d="M 141.402344 151.992188 C 141.183594 151.992188 140.917969 151.90625 140.742188 151.773438 C 140.300781 151.421875 140.257812 150.761719 140.609375 150.320312 C 155.664062 132.53125 177.585938 120.996094 200.742188 118.707031 C 223.941406 116.417969 247.667969 123.417969 265.933594 137.90625 C 266.375 138.257812 266.460938 138.871094 266.109375 139.3125 C 265.757812 139.753906 265.140625 139.839844 264.703125 139.488281 C 246.875 125.3125 223.632812 118.488281 200.960938 120.734375 C 178.292969 122.980469 156.855469 134.25 142.152344 151.640625 C 142.019531 151.859375 141.710938 151.992188 141.402344 151.992188 Z M 141.402344 151.992188 " fill-opacity="1" fill-rule="nonzero"/><path fill="#c46002" d="M 18.632812 189.769531 C 18.101562 189.769531 17.621094 189.328125 17.621094 188.800781 C 17.621094 188.230469 18.058594 187.789062 18.585938 187.746094 C 51.207031 186.820312 84.222656 185.675781 116.75 184.308594 C 117.324219 184.308594 117.808594 184.707031 117.808594 185.277344 C 117.851562 185.851562 117.410156 186.335938 116.839844 186.335938 C 84.308594 187.699219 51.292969 188.84375 18.632812 189.769531 C 18.675781 189.769531 18.675781 189.769531 18.632812 189.769531 Z M 18.632812 189.769531 " fill-opacity="1" fill-rule="nonzero"/><path fill="#c46002" d="M 93.246094 251.058594 C 90.03125 251.058594 86.816406 250.484375 84.574219 248.105469 C 84.351562 247.886719 84.265625 247.535156 84.308594 247.226562 C 84.351562 246.917969 84.574219 246.652344 84.835938 246.523438 L 89.414062 244.144531 C 88.183594 242.824219 85.71875 242.515625 83.867188 242.425781 C 67.757812 241.503906 51.425781 241.636719 35.316406 242.734375 C 34.742188 242.78125 34.257812 242.339844 34.214844 241.8125 C 34.171875 241.238281 34.609375 240.753906 35.140625 240.710938 C 51.339844 239.566406 67.757812 239.476562 83.957031 240.402344 C 86.6875 240.535156 90.429688 241.105469 91.792969 244.144531 C 92.011719 244.628906 91.792969 245.199219 91.351562 245.464844 L 87.125 247.667969 C 89.503906 249.25 93.023438 249.164062 96.195312 248.945312 L 126.566406 246.742188 C 127.140625 246.699219 127.625 247.136719 127.667969 247.667969 C 127.710938 248.238281 127.273438 248.722656 126.742188 248.765625 L 96.371094 250.96875 C 95.3125 251.011719 94.257812 251.058594 93.246094 251.058594 Z M 93.246094 251.058594 " fill-opacity="1" fill-rule="nonzero"/><path fill="#c46002" d="M 118.820312 221.601562 C 118.25 221.601562 117.808594 221.160156 117.808594 220.589844 C 117.808594 220.015625 118.25 219.578125 118.820312 219.53125 C 196.207031 217.816406 274.296875 211.476562 350.9375 200.734375 C 351.464844 200.644531 351.992188 201.039062 352.082031 201.613281 C 352.167969 202.183594 351.773438 202.667969 351.199219 202.757812 C 274.472656 213.542969 196.296875 219.886719 118.820312 221.601562 Z M 118.820312 221.601562 " fill-opacity="1" fill-rule="nonzero"/><path fill="#c46002" d="M 150.691406 255.105469 C 150.117188 255.105469 149.679688 254.667969 149.679688 254.09375 C 149.679688 253.523438 150.117188 253.082031 150.691406 253.082031 C 191.980469 252.464844 233.800781 250.132812 274.914062 246.125 C 275.488281 246.082031 275.972656 246.476562 276.015625 247.050781 C 276.058594 247.621094 275.664062 248.105469 275.089844 248.152344 C 233.933594 252.15625 192.070312 254.492188 150.691406 255.105469 Z M 150.691406 255.105469 " fill-opacity="1" fill-rule="nonzero"/><path fill="#ffd503" d="M 283.5 256.78125 C 263.074219 259.90625 242.691406 262.460938 222.046875 263.253906 C 201.3125 264.046875 180.535156 264.089844 159.804688 264.398438 C 147.742188 264.574219 135.722656 265.058594 123.664062 265.585938 C 121.683594 265.675781 121.683594 268.625 123.664062 268.667969 C 145.144531 268.976562 166.582031 268.800781 188.0625 268.535156 C 208.707031 268.273438 229.398438 267.964844 249.910156 265.675781 C 261.488281 264.398438 272.976562 262.371094 284.027344 258.585938 C 285.128906 258.1875 284.644531 256.605469 283.5 256.78125 Z M 283.5 256.78125 " fill-opacity="1" fill-rule="nonzero"/><path fill="#ffeb8a" d="M 317.261719 266.90625 C 306.257812 267.964844 295.25 269.8125 284.289062 271.398438 C 273.417969 272.9375 262.546875 274.082031 251.585938 274.875 C 229.574219 276.460938 207.386719 276.726562 185.335938 275.582031 C 183.308594 275.492188 183.441406 278.574219 185.421875 278.75 C 207.695312 280.554688 229.96875 280.6875 252.246094 279.058594 C 273.988281 277.429688 296.703125 275.316406 317.4375 268.273438 C 318.140625 268.007812 318.054688 266.863281 317.261719 266.90625 Z M 317.261719 266.90625 " fill-opacity="1" fill-rule="nonzero"/><path fill="#bde0ff" d="M 320.210938 274.875 C 312.726562 276.371094 305.199219 277.648438 297.714844 279.324219 C 290.277344 280.996094 282.792969 282.359375 275.265625 283.683594 C 260.078125 286.28125 244.71875 287.070312 229.441406 289.097656 C 227.8125 289.316406 227.769531 291.519531 229.441406 291.695312 C 244.804688 293.234375 260.433594 291.386719 275.664062 289.230469 C 283.191406 288.171875 290.671875 286.632812 298.113281 284.914062 C 305.992188 283.066406 313.34375 280.378906 320.828125 277.253906 C 322.28125 276.636719 321.796875 274.523438 320.210938 274.875 Z M 320.210938 274.875 " fill-opacity="1" fill-rule="nonzero"/><path fill="#fff4bd" d="M 195.28125 286.148438 C 185.640625 286.984375 176.003906 288.171875 166.363281 288.699219 C 156.457031 289.230469 146.554688 288.921875 136.691406 287.953125 C 134.800781 287.777344 134.449219 290.636719 136.296875 290.859375 C 155.839844 293.28125 176.792969 293.71875 195.765625 287.953125 C 196.824219 287.601562 196.296875 286.058594 195.28125 286.148438 Z M 195.28125 286.148438 " fill-opacity="1" fill-rule="nonzero"/><path fill="#bde0ff" d="M 273.902344 293.410156 C 256.074219 294.378906 238.246094 295.523438 220.460938 296.800781 C 202.589844 298.078125 184.675781 298.738281 166.757812 300.105469 C 165.394531 300.191406 165.394531 302.171875 166.757812 302.261719 C 184.894531 303.539062 202.898438 303.011719 220.992188 301.867188 C 238.816406 300.71875 256.558594 298.34375 274.035156 294.644531 C 274.695312 294.46875 274.5625 293.367188 273.902344 293.410156 Z M 273.902344 293.410156 " fill-opacity="1" fill-rule="nonzero"/><path fill="#bde0ff" d="M 298.464844 300.941406 C 280.550781 303.097656 262.589844 305.167969 244.628906 306.796875 C 226.667969 308.425781 208.664062 309.042969 190.792969 311.332031 C 189.824219 311.464844 189.824219 313.046875 190.835938 313.09375 C 208.839844 314.0625 226.710938 312.210938 244.628906 310.1875 C 262.765625 308.117188 280.726562 305.34375 298.597656 301.511719 C 298.90625 301.425781 298.816406 300.898438 298.464844 300.941406 Z M 298.464844 300.941406 " fill-opacity="1" fill-rule="nonzero"/><path fill="#ff9a03" d="M 119.878906 155.734375 C 116.398438 152.960938 112.613281 150.585938 108.917969 148.03125 C 108.652344 147.855469 108.386719 148.296875 108.652344 148.472656 C 112.261719 151.023438 115.828125 153.753906 119.613281 156.042969 C 119.832031 156.21875 120.054688 155.910156 119.878906 155.734375 Z M 119.878906 155.734375 " fill-opacity="1" fill-rule="nonzero"/><path fill="#ff9a03" d="M 137.882812 134.644531 C 135.238281 130.464844 131.71875 126.851562 128.328125 123.242188 C 124.71875 119.414062 121.066406 115.582031 117.457031 111.75 C 117.058594 111.355469 116.488281 111.925781 116.839844 112.367188 C 120.097656 116.285156 123.355469 120.203125 126.613281 124.125 C 129.824219 127.996094 133.039062 132.09375 137 135.261719 C 137.484375 135.660156 138.234375 135.21875 137.882812 134.644531 Z M 137.882812 134.644531 " fill-opacity="1" fill-rule="nonzero"/><path fill="#ff9a03" d="M 144.617188 117.429688 C 143.03125 110.519531 139.246094 104.707031 135.019531 99.160156 C 130.75 93.566406 126.171875 88.417969 120.714844 84.015625 C 120.183594 83.617188 119.261719 84.144531 119.699219 84.804688 C 123.707031 90.441406 127.886719 95.945312 131.675781 101.714844 C 135.371094 107.347656 138.628906 113.25 143.164062 118.3125 C 143.734375 119.015625 144.792969 118.269531 144.617188 117.429688 Z M 144.617188 117.429688 " fill-opacity="1" fill-rule="nonzero"/><path fill="#ff9a03" d="M 178.421875 97.222656 C 176.617188 86.875 172.171875 77.453125 167.460938 68.121094 C 167.066406 67.328125 165.878906 67.898438 166.097656 68.691406 C 168.78125 78.773438 171.730469 88.769531 177.277344 97.707031 C 177.675781 98.367188 178.554688 97.925781 178.421875 97.222656 Z M 178.421875 97.222656 " fill-opacity="1" fill-rule="nonzero"/><path fill="#ff9a03" d="M 200.476562 88.769531 C 199.859375 83.308594 199.246094 77.9375 198.144531 72.523438 C 197.792969 70.71875 195.105469 71.203125 195.0625 72.960938 C 194.929688 78.464844 195.28125 83.835938 195.679688 89.339844 C 196.074219 94.667969 196.25 99.953125 198.320312 104.925781 C 198.714844 105.941406 200.390625 106.246094 200.652344 104.925781 C 201.796875 99.511719 201.050781 94.183594 200.476562 88.769531 Z M 200.476562 88.769531 " fill-opacity="1" fill-rule="nonzero"/><path fill="#ff9a03" d="M 226.492188 94.183594 C 225.304688 98.894531 224.027344 103.5625 223.148438 108.363281 C 223.101562 108.625 223.5 108.757812 223.542969 108.492188 C 224.863281 103.828125 225.746094 99.027344 226.757812 94.273438 C 226.800781 94.050781 226.535156 94.007812 226.492188 94.183594 Z M 226.492188 94.183594 " fill-opacity="1" fill-rule="nonzero"/><path fill="#ff9a03" d="M 263.074219 68.957031 C 256.777344 81.722656 249.734375 95.152344 248.105469 109.460938 C 248.019531 110.34375 249.339844 110.605469 249.691406 109.902344 C 256.558594 97.488281 260.078125 83.441406 265.582031 70.410156 C 266.332031 68.734375 263.953125 67.238281 263.074219 68.957031 Z M 263.074219 68.957031 " fill-opacity="1" fill-rule="nonzero"/><path fill="#ff9a03" d="M 293.535156 81.195312 C 291.90625 83.574219 290.320312 85.949219 289 88.503906 C 288.78125 88.902344 289.308594 89.339844 289.617188 88.988281 C 291.554688 86.789062 293.226562 84.410156 294.898438 81.988281 C 295.472656 81.195312 294.105469 80.359375 293.535156 81.195312 Z M 293.535156 81.195312 " fill-opacity="1" fill-rule="nonzero"/><path fill="#ff9a03" d="M 310.878906 111.265625 C 305.113281 113.953125 299.785156 117.429688 294.765625 121.304688 C 289.75 125.136719 285.480469 129.273438 282.925781 135.085938 C 282.441406 136.1875 283.5 137.597656 284.6875 136.847656 C 289.75 133.722656 293.84375 129.714844 298.199219 125.707031 C 302.734375 121.527344 307.664062 117.871094 312.683594 114.304688 C 314.488281 112.984375 312.902344 110.296875 310.878906 111.265625 Z M 310.878906 111.265625 " fill-opacity="1" fill-rule="nonzero"/><path fill="#ff9a03" d="M 321.882812 138.742188 C 316.46875 140.898438 311.582031 144.066406 306.566406 146.972656 C 301.328125 149.96875 296.175781 153.269531 290.894531 156.21875 C 290.234375 156.570312 290.671875 157.71875 291.421875 157.453125 C 302.382812 153.445312 314.398438 148.734375 322.808594 140.28125 C 323.425781 139.664062 322.808594 138.34375 321.882812 138.742188 Z M 321.882812 138.742188 " fill-opacity="1" fill-rule="nonzero"/><path fill="#ff9a03" d="M 295.867188 75.382812 C 289.925781 80.976562 285.433594 87.449219 281.253906 94.449219 C 277.160156 101.316406 272.976562 108.097656 270.863281 115.847656 C 270.734375 116.332031 271.394531 116.769531 271.746094 116.375 C 276.9375 110.519531 280.769531 103.828125 285.128906 97.355469 C 289.660156 90.617188 294.195312 84.144531 297.714844 76.835938 C 298.332031 75.648438 296.878906 74.460938 295.867188 75.382812 Z M 295.867188 75.382812 " fill-opacity="1" fill-rule="nonzero"/><path fill="#ff9a03" d="M 119.394531 155.382812 C 110.632812 150.539062 102.488281 144.683594 93.199219 140.808594 C 92.496094 140.503906 91.835938 141.46875 92.234375 142.085938 C 98.21875 150.980469 107.773438 156 117.632812 159.566406 C 120.097656 160.492188 121.636719 156.617188 119.394531 155.382812 Z M 119.394531 155.382812 " fill-opacity="1" fill-rule="nonzero"/><path fill="#ff9a03" d="M 228.519531 61.425781 C 224.6875 67.414062 223.410156 73.578125 224.46875 80.625 C 224.777344 82.691406 228.164062 82.605469 228.519531 80.625 C 229.792969 74.328125 230.234375 68.296875 230.191406 61.867188 C 230.191406 60.941406 229 60.679688 228.519531 61.425781 Z M 228.519531 61.425781 " fill-opacity="1" fill-rule="nonzero"/></svg>